# xmcd
#
# Track frame offsets:
#	150
#	13533
#	22233
#	30737
#	44295
#	55744
#	66325
#	77335
#	89203
#	95580
#	109142
#	129069
#	140505
#	156542
#	171238
#	181324
#	193245
#	206636
#	217416
#	229100
#
# Disc length: 3195 seconds
#
# Revision: 1
# Processed by: cddbd v1.5.2PL0 Copyright (c) Steve Scherf et al.
# Submitted via: EasyCDDAExtractor 16.1.0.1
#
DISCID=280c7914
DTITLE=Various Country - Country Gold CD1
DYEAR=1900
DGENRE=Country
TTITLE0=Jennifer Weatherly - In The Name Of Love
TTITLE1=Kathy Mattea - Put Yourself In My Place
TTITLE2=Barbara Mandrell - I Gave My Love To A Railroad Man
TTITLE3=Johnny Paycheck - I Feel Like Crying
TTITLE4=Carl Perkins - Standing In The Need Of Love
TTITLE5=Jackson Stonewall - Should I Go Home
TTITLE6=Tammy Wynette - Fairy Tales
TTITLE7=Anne Murray - Last Thing On My Mind
TTITLE8=Jim Reeves - I'm Beginning To Forget You
TTITLE9=Barbara Fairchild - Every Flower Has To Have A Seed
TTITLE10=Lee Greenwood - God Bless The Usa
TTITLE11=George Jones - A House Without Love Is Not A Home
TTITLE12=Mell Tills - Rose Of El Paso
TTITLE13=Kenny Rogers - Heed The Call
TTITLE14=Willie Nelson - Pride Wins Again
TTITLE15=Bill Monroe - Can't You Hear Me Calling
TTITLE16=Barbare Fairchild - Teddy Bear Song
TTITLE17=Kitty Wells - Searching
TTITLE18=Waylon Jennings - Crying
TTITLE19=Dolly Parton - It Wasn't God Who Made Honkey
EXTD=
EXTT0=
EXTT1=
EXTT2=
EXTT3=
EXTT4=
EXTT5=
EXTT6=
EXTT7=
EXTT8=
EXTT9=
EXTT10=
EXTT11=
EXTT12=
EXTT13=
EXTT14=
EXTT15=
EXTT16=
EXTT17=
EXTT18=
EXTT19=
PLAYORDER=
